# xmcd
#
# Track frame offsets:
# 150
# 30082
# 55825
# 72637
# 94636
# 111136
# 135493
# 146901
# 168645
# 187230
# 210280
#
# Disc length: 3005 seconds
#
#
# Revision: 16
# Processed by: cddbd v1.5.2PL0 Copyright (c) Steve Scherf et al.
# Submitted via: FreeRIP 2.951 
#
DISCID=9d0bbb0b
DTITLE=Tom Waits - Small Change
DYEAR=1976
DGENRE=Blues
TTITLE0=Tom Traubert's Blues (Four Sheets To The Wind In Copenhagen)
TTITLE1=Step Right Up
TTITLE2=Jitterbug Boy (Sharing A Curbstone With Chuck E. Weiss, Robert Marchese, Paul Body And The Mug And Artie)
TTITLE3=I Wish I Was In New Orleans (In The Ninth Ward)
TTITLE4=The Piano Has Been Drinking (Not Me)
TTITLE5=Invitation To The Blues
TTITLE6=Pasties And A G-String (At The Two O'Clock Club)
TTITLE7=Bad Liver And A Broken Heart (In Lowell)
TTITLE8=The One That Got Away
TTITLE9=Small Change (Got Rained On With His Own .38)
TTITLE10=I Can't Wait To Get Off Work (And See My Baby On Montgomery Avenue)
EXTD=
EXTT0=
EXTT1=
EXTT2=
EXTT3=
EXTT4=
EXTT5=
EXTT6=
EXTT7=
EXTT8=
EXTT9=
EXTT10=
PLAYORDER=
